<?xml version="1.0" encoding="utf-8"?>
<!-- Generator: Adobe Illustrator 23.0.3, SVG Export Plug-In . SVG Version: 6.00 Build 0)  -->
<svg version="1.1"
	 id="svg2" inkscape:version="0.47 r22583" sodipodi:docname="Hanoi_Logo.svg" xmlns:cc="http://creativecommons.org/ns#" xmlns:dc="http://purl.org/dc/elements/1.1/" xmlns:inkscape="http://www.inkscape.org/namespaces/inkscape" xmlns:rdf="http://www.w3.org/1999/02/22-rdf-syntax-ns#" xmlns:sodipodi="http://sodipodi.sourceforge.net/DTD/sodipodi-0.dtd" xmlns:svg="http://www.w3.org/2000/svg"
	 xmlns="http://www.w3.org/2000/svg" xmlns:xlink="http://www.w3.org/1999/xlink" x="0px" y="0px" viewBox="0 0 298.5 300"
	 style="enable-background:new 0 0 298.5 300;" xml:space="preserve">
<defs>
	
	
		<inkscape:perspective  id="perspective33" inkscape:persp3d-origin="268.75 : 179.16667 : 1" inkscape:vp_x="0 : 268.75 : 1" inkscape:vp_y="0 : 1000 : 0" inkscape:vp_z="537.5 : 268.75 : 1" sodipodi:type="inkscape:persp3d">
		</inkscape:perspective>
</defs>
<sodipodi:namedview  bordercolor="#666666" borderopacity="1" gridtolerance="10" guidetolerance="10" id="namedview27" inkscape:current-layer="svg2" inkscape:cx="297.87935" inkscape:cy="241.0202" inkscape:pageopacity="0" inkscape:pageshadow="2" inkscape:window-height="750" inkscape:window-maximized="1" inkscape:window-width="1280" inkscape:window-x="-8" inkscape:window-y="-8" inkscape:zoom="0.87813953" objecttolerance="10" pagecolor="#ffffff" showgrid="false">
	</sodipodi:namedview>
<g transform="matrix(0.58479401,0,0,0.58479401,-6.0300101,-5.0963421)">
	<g>
		<path id="path5" d="M611.1,449.2c0.5-0.1,1-0.2,1.5-0.2c0.6,0,1.2,0,1.7,0c0.5,0.1,1,0.2,1.5,0.2c0.7,0.2,1.5,0.3,2.1,0.6
			c0.5,0.1,1,0.4,1.5,0.7c0.6,0.4,1.2,0.7,1.8,1.2c0.6,0.4,1.1,1,1.7,1.5c1,1.1,1.8,2.3,2.4,3.7c0.2,0.5,0.4,1,0.5,1.5
			c0.1,0.4,0.2,0.7,0.3,1.1c0.1,0.5,0.2,1,0.2,1.5c0,0.7,0,1.3,0,2c-0.1,0.8-0.2,1.5-0.4,2.3c-0.1,0.6-0.4,1.2-0.6,1.7
			c-0.6,1.3-1.4,2.6-2.4,3.7c-0.3,0.3-0.6,0.6-0.8,0.8c-1.1,1-2.4,1.8-3.7,2.4c-0.4,0.1-0.8,0.3-1.2,0.4c0-2.5,0-4.9,0-7.4
			c-2.5,0-4.9,0-7.4,0c0,2.5,0,4.9,0,7.4c-0.4-0.1-0.8-0.3-1.2-0.4c-1.3-0.6-2.6-1.4-3.7-2.4c-0.4-0.4-0.8-0.8-1.2-1.2
			c-0.6-0.7-1.1-1.5-1.6-2.3c-0.2-0.4-0.5-0.9-0.6-1.3c-0.2-0.4-0.3-0.8-0.4-1.3c-0.1-0.4-0.3-0.9-0.3-1.3c-0.1-0.4-0.1-0.8-0.2-1.2
			c0-0.7,0-1.3,0-2c0.1-0.8,0.2-1.5,0.4-2.3c0.1-0.6,0.4-1.2,0.6-1.7c0.6-1.3,1.4-2.6,2.4-3.7c0.5-0.5,1-1,1.5-1.4
			c0.9-0.7,1.9-1.3,3-1.8c0.5-0.2,1-0.4,1.5-0.5C610.3,449.3,610.7,449.2,611.1,449.2 M609.5,451.2c-0.5,0.1-1,0.4-1.5,0.7
			c-0.4,0.2-0.8,0.5-1.2,0.8c-0.7,0.5-1.2,1.1-1.8,1.6c-0.3,0.4-0.7,0.8-1,1.2c-0.4,0.6-0.7,1.2-1,1.8c-0.1,0.2-0.1,0.4-0.2,0.7
			c-0.4,0.9-0.5,1.9-0.6,2.8c0,0.7,0,1.3,0,2c0.1,1,0.3,2,0.7,3c0.3,0.8,0.7,1.6,1.1,2.3c0.4,0.6,0.8,1.2,1.4,1.6
			c0.2,0.2,0.4,0.4,0.6,0.6c0.6,0.5,1.2,1,1.9,1.3c0-2.2,0-4.4,0-6.6c0.6,0,1.2,0,1.8,0c0-1,0-2.1,0-3.1c-1.3,0-2.5,0-3.8,0
			c-0.9-0.9-1.7-1.7-2.6-2.6c0.5-0.4,0.9-0.9,1.3-1.3c0.6,0.7,1.3,1.3,2,2c1.6,0,3.3,0,4.9,0c0,1.7,0,3.3,0,5c1.3,0,2.5,0,3.8,0
			c0-1.7,0-3.3,0-5c1.6,0,3.3,0,4.9,0c0.6-0.6,1.2-1.2,1.8-1.8c0.1,0,0.1-0.1,0.2-0.1c0.4,0.4,0.9,0.8,1.3,1.3c0,0,0,0.1-0.1,0.1
			c-0.8,0.8-1.7,1.7-2.5,2.5c-1.3,0-2.5,0-3.8,0c0,1,0,2.1,0,3.1c0.6,0,1.2,0,1.8,0c0,2.2,0,4.4,0,6.6c0.3-0.2,0.7-0.4,1-0.6
			c0.5-0.4,1-0.8,1.4-1.2c0.6-0.5,1-1.1,1.5-1.7c0.5-0.7,0.9-1.5,1.2-2.3c0.4-0.9,0.5-1.9,0.7-2.9c0-0.7,0-1.4,0-2
			c-0.1-0.6-0.2-1.3-0.4-1.9c-0.1-0.5-0.3-1-0.5-1.5c-0.3-0.6-0.6-1.3-1-1.9c-0.4-0.6-0.8-1.1-1.3-1.6c-0.8-0.8-1.7-1.5-2.7-2.1
			c-0.5-0.2-0.9-0.5-1.4-0.6c-1-0.4-2-0.6-3.1-0.7c-0.6,0-1.2,0-1.8,0C611.4,450.6,610.4,450.8,609.5,451.2L609.5,451.2z"/>
		<path id="path7" d="M610,453.4c0.5,0,1.1,0,1.6,0c0,0.2-0.1,0.3-0.1,0.5c1.3,0,2.5,0,3.8,0c0-0.2-0.1-0.3-0.1-0.5
			c0.5,0,1.1,0,1.6,0c0.4,1,0.8,2,1.2,3c-0.7,0-1.3,0-2,0c-0.1-0.3-0.1-0.5-0.2-0.8c-1.6,0-3.1,0-4.7,0c-0.1,0.2-0.1,0.5-0.2,0.8
			c-0.7,0-1.3,0-2,0C609.2,455.4,609.6,454.4,610,453.4L610,453.4z"/>
		<path id="path9" d="M606.3,456.3c0,0,0.1-0.1,0.2-0.1c0.4,0.4,0.8,0.8,1.2,1.2c3.8,0,7.6,0,11.3,0c0.4-0.4,0.8-0.8,1.3-1.3h0
			c0.4,0.4,0.8,0.8,1.2,1.2c-0.6,0.6-1.2,1.1-1.7,1.7c-4.3,0-8.6,0-12.9,0c-0.6-0.6-1.2-1.1-1.7-1.7
			C605.6,457,606,456.7,606.3,456.3L606.3,456.3z"/>
		<path id="path11" d="M611.7,471.5c0.1,0,0.3,0,0.5,0c0.1,0.1,0.2,0.3,0.3,0.4c-0.1,0-0.2,0-0.4,0
			C611.9,471.7,611.8,471.6,611.7,471.5z"/>
		<path id="path13" d="M615.4,471.5c0.2,0,0.3,0,0.5,0c0.1,0.1,0.2,0.2,0.4,0.4c-0.1,0-0.3,0-0.4,0c0-0.2-0.3-0.2-0.3,0
			c-0.1,0-0.3,0-0.4,0C615.1,471.7,615.2,471.6,615.4,471.5L615.4,471.5z"/>
		<path id="path15" d="M609.8,471.9c0.2,0,0.4,0,0.6,0c0,0.3,0,0.6,0,0.8c0,0,0.1,0,0.2,0c0-0.3,0-0.6,0-0.8c0.2,0,0.4,0,0.6,0
			c0,0.7,0,1.4,0,2.2c-0.2,0-0.4,0-0.6,0c0-0.3,0-0.6,0-0.9c0,0-0.1,0-0.2,0c0,0.3,0,0.6,0,0.9c-0.2,0-0.4,0-0.6,0
			C609.8,473.4,609.8,472.6,609.8,471.9z"/>
		<path id="path17" d="M611.6,471.9c0.3,0,0.6,0,0.9,0c0.1,0.7,0.2,1.4,0.3,2.2c-0.2,0-0.4,0-0.6,0c0-0.1,0-0.3,0-0.4
			c-0.1,0-0.2,0-0.3,0c0,0.1,0,0.3,0,0.4c-0.2,0-0.4,0-0.6,0C611.4,473.4,611.5,472.6,611.6,471.9 M612,472.9c0,0.1,0,0.3,0,0.5
			c0,0,0.1,0,0.1,0c0-0.1,0-0.3,0-0.5C612.1,472.9,612,472.9,612,472.9z"/>
		<path id="path19" d="M613.5,471.9c0.1,0,0.3,0,0.4,0c0.1,0.2,0.1,0.5,0.3,0.7c0-0.2,0-0.5,0-0.7c0.2,0,0.4,0,0.6,0
			c0,0.7,0,1.4,0,2.2c-0.2,0-0.3,0-0.5,0c-0.1-0.2-0.1-0.5-0.2-0.7c0,0.2,0,0.4,0,0.7c-0.2,0-0.4,0-0.6,0
			C613.5,473.4,613.5,472.6,613.5,471.9L613.5,471.9z"/>
		<path id="path21" d="M615.3,471.9c0.2,0,0.5-0.1,0.7,0.1c0.1,0.1,0.3,0.3,0.2,0.5c0,0.3,0,0.7,0,1c0,0.3-0.2,0.5-0.5,0.6
			c-0.2,0-0.4,0-0.6-0.1c-0.2-0.1-0.3-0.3-0.3-0.5c0-0.3,0-0.7,0-1C614.9,472.2,615.1,472,615.3,471.9 M615.5,472.3
			c0,0.5,0,0.9,0,1.4c0,0,0.1,0,0.2,0c0-0.5,0-0.9,0-1.4C615.6,472.3,615.5,472.3,615.5,472.3z"/>
		<path id="path23" d="M616.4,471.9c0.2,0,0.4,0,0.6,0c0,0.7,0,1.4,0,2.2c-0.2,0-0.4,0-0.6,0C616.4,473.4,616.4,472.6,616.4,471.9z"
			/>
	</g>
	<path id="path25" d="M615.3,474.2c0.1,0,0.3,0,0.5,0c0,0.1,0,0.3,0,0.5c-0.1,0-0.3,0-0.5,0C615.3,474.4,615.3,474.3,615.3,474.2z"
		/>
</g>
</svg>
